<?xml version="1.0" encoding="utf-8"?>
<!-- Generator: Adobe Illustrator 24.0.1, SVG Export Plug-In . SVG Version: 6.00 Build 0)  -->
<svg version="1.1" id="Capa_1" xmlns="http://www.w3.org/2000/svg" xmlns:xlink="http://www.w3.org/1999/xlink" x="0px" y="0px"
	 viewBox="0 0 351 104.5" style="enable-background:new 0 0 351 104.5;" xml:space="preserve">
<style type="text/css">
	.st0{fill:#FFFFFF;}
	.st1{fill:#FFEC00;}
</style>
<title>logo_argpro</title>
<g id="Shell">
	<path d="M60.8,93.9H13.3c-8,0-13.3-5.1-13.3-13C0,58.3,0,35.6,0,13C0,5.2,5.3,0,13.3,0c31.7,0,63.3,0,95,0
		c8.2,0,13.4,5.2,13.4,13.4c0,22.4,0,44.8,0,67.1c0,8.2-5.2,13.4-13.4,13.4L60.8,93.9z"/>
	<path class="st0" d="M47.6,44.4c0,1.2-0.5,2.4-1.3,3.3c-4.9,5.8-9.8,11.7-14.7,17.5c-2,2.3-4.5,2.6-6.6,0.9s-2.3-4.4-0.3-6.8
		c3.6-4.3,7.1-8.7,10.8-12.9c1.4-1.6,1.3-2.6-0.1-4.1c-3.6-4.1-7.1-8.3-10.5-12.5c-2.1-2.5-2-5.2,0.1-7s4.7-1.4,6.9,1.3
		c4.7,5.6,9.5,11.3,14.2,17C46.9,41.9,47.5,43.1,47.6,44.4z"/>
	<path class="st1" d="M66,69.4c4.8,0,9.7,0,14.5,0c3.1,0,4.9,1.6,4.9,4.1s-1.9,4.1-4.9,4.1c-9.8,0-19.5,0-29.3,0c-3,0-5-1.7-4.9-4.1
		s2-4.1,5-4.1C56.2,69.4,61.1,69.4,66,69.4z"/>
</g>
<g id="Programa">
	<path class="st0" d="M152.1,70.9h5.6l0.4,2.5h0.3c0.8-0.9,1.7-1.6,2.8-2.1c1.1-0.5,2.4-0.8,3.6-0.8c1.7,0,3.4,0.4,4.9,1.2
		c1.5,0.9,2.7,2.2,3.4,3.8c0.9,2.1,1.4,4.3,1.3,6.6c0.1,2.4-0.4,4.8-1.4,7c-0.9,1.9-2.4,3.4-4.2,4.3c-2.1,1-4.3,1.5-6.6,1.5
		c-1.1,0-2.2-0.1-3.3-0.2v9.3h-6.6L152.1,70.9z M166.2,87.9c1-1.1,1.5-2.8,1.5-5.1s-0.4-4-1.3-5c-0.9-1-2.2-1.6-3.6-1.5
		c-0.8,0-1.5,0.2-2.3,0.4c-0.7,0.3-1.4,0.7-1.9,1.3v11.1c1,0.2,2,0.3,3,0.3C163.4,89.7,165,89.1,166.2,87.9L166.2,87.9z"/>
	<path class="st0" d="M178.4,70.9h5.4l0.5,2.9h0.3c0.6-1,1.5-1.9,2.5-2.4c1.1-0.6,2.3-0.8,3.5-0.8c0.6,0,1.3,0.1,1.9,0.2v6.4
		c-0.7-0.1-1.5-0.2-2.3-0.2c-1,0-2,0.2-3,0.6c-0.9,0.3-1.7,0.9-2.3,1.7v15.2h-6.6V70.9z"/>
	<path class="st0" d="M199.5,93.6c-1.7-0.9-3.1-2.4-4-4.1c-1-2.1-1.5-4.4-1.4-6.7c-0.1-2.3,0.4-4.6,1.4-6.7c0.8-1.7,2.2-3.2,3.9-4.1
		c3.9-1.8,8.4-1.8,12.3,0c1.7,0.9,3.1,2.4,3.9,4.1c1,2.1,1.4,4.4,1.4,6.7c0.1,2.3-0.4,4.6-1.4,6.7c-0.9,1.8-2.2,3.2-3.9,4.2
		c-1.8,1-3.9,1.5-6,1.4C203.5,95.1,201.4,94.6,199.5,93.6z M209.1,87.9c0.8-1,1.2-2.8,1.2-5.1c0-2.4-0.4-4.1-1.2-5.2
		c-0.9-1.1-2.2-1.7-3.6-1.6c-1.4-0.1-2.7,0.5-3.6,1.6c-0.8,1-1.2,2.8-1.2,5.1s0.4,4.1,1.2,5.2c1.8,2,4.9,2.1,6.9,0.3
		C209,88.1,209.1,88,209.1,87.9z"/>
	<path class="st0" d="M221.9,103.4v-5.5c1.3,0.4,2.6,0.7,4,0.9c1.2,0.2,2.4,0.3,3.6,0.3c1.3,0,2.6-0.1,3.8-0.6
		c0.9-0.3,1.6-1,2.1-1.8c0.5-1,0.7-2.1,0.6-3.2V92h-0.3c-0.7,0.8-1.7,1.5-2.7,1.9c-1.1,0.5-2.3,0.7-3.5,0.7c-1.6,0-3.2-0.4-4.6-1.3
		c-1.4-0.9-2.6-2.3-3.3-3.8c-0.9-2-1.3-4.1-1.2-6.3c0-4.1,1.1-7.2,3.3-9.4c2.2-2.2,5.5-3.3,9.8-3.3c1.6,0,3.2,0.1,4.8,0.3
		c1.5,0.2,2.9,0.5,4.3,1v20.3c0.1,2.4-0.4,4.8-1.4,7c-0.9,1.8-2.4,3.2-4.2,4c-2.3,0.9-4.7,1.4-7.1,1.3
		C227.2,104.5,224.5,104.1,221.9,103.4z M234.1,88.4c0.7-0.3,1.3-0.7,1.9-1.2V76.4c-1-0.3-2-0.4-3-0.4c-1.6-0.1-3.3,0.5-4.4,1.6
		c-1.1,1.4-1.6,3.2-1.5,5c0,2.2,0.4,3.8,1.3,4.8c0.9,1,2.2,1.5,3.6,1.4C232.7,88.8,233.4,88.7,234.1,88.4L234.1,88.4z"/>
	<path class="st0" d="M247.8,70.9h5.4l0.5,2.9h0.3c0.6-1,1.5-1.9,2.5-2.4c1.1-0.6,2.3-0.8,3.5-0.8c0.6,0,1.3,0.1,1.9,0.2v6.4
		c-0.7-0.1-1.5-0.2-2.3-0.2c-1,0-2,0.2-3,0.6c-0.9,0.3-1.7,0.9-2.3,1.7v15.2h-6.6L247.8,70.9z"/>
	<path class="st0" d="M278.3,71.5c1.5,0.6,2.7,1.7,3.4,3.2c0.8,1.9,1.2,4,1.1,6.1v13.7h-5.5l-0.5-2.3h-0.3c-0.7,0.9-1.6,1.6-2.7,2
		c-1.1,0.5-2.3,0.7-3.5,0.7c-1.4,0-2.8-0.3-4.1-0.9c-1.1-0.5-2-1.4-2.6-2.4c-0.6-1.1-0.9-2.3-0.9-3.6c-0.1-2,0.8-3.9,2.3-5.2
		c1.5-1.2,4-2,7.3-2.2l4-0.3v-0.1c0-0.9-0.1-1.8-0.5-2.7c-0.4-0.7-1-1.2-1.7-1.4c-1-0.3-2.1-0.4-3.2-0.4c-1,0-2.1,0.1-3.1,0.3
		c-1.1,0.2-2.1,0.4-3.2,0.8v-5.2c1.2-0.4,2.4-0.6,3.7-0.8c1.3-0.2,2.5-0.3,3.8-0.3C274.3,70.5,276.4,70.8,278.3,71.5z M274.6,89.8
		c0.7-0.3,1.3-0.7,1.8-1.2v-4.3l-3.3,0.3c-1,0-2,0.3-2.8,0.9c-0.6,0.5-0.9,1.2-0.8,2c-0.1,0.7,0.2,1.5,0.8,2
		c0.7,0.5,1.5,0.8,2.3,0.7C273.2,90.2,273.9,90.1,274.6,89.8z"/>
	<path class="st0" d="M319.1,72.9c1.4,1.6,2.1,4.1,2.1,7.4v14.2h-6.6V80.7c0.1-1.1-0.2-2.2-0.8-3.1c-0.6-0.6-1.4-1-2.3-0.9
		c-0.7,0-1.4,0.1-2,0.4c-0.6,0.3-1.2,0.7-1.6,1.3c0,0.5,0.1,1.1,0.1,1.8v14.4h-6.5V80.7c0.1-1.1-0.2-2.2-0.8-3.2
		c-0.6-0.6-1.4-1-2.2-0.9c-0.8,0-1.5,0.2-2.2,0.5c-0.7,0.4-1.3,0.9-1.7,1.6v15.8h-6.6V70.9h5.5l0.4,2.3h0.3c0.8-0.9,1.8-1.6,2.9-2.1
		c1.1-0.5,2.4-0.7,3.6-0.7c1.2,0,2.4,0.2,3.4,0.8c1,0.5,1.9,1.3,2.5,2.3c1.8-2,4.3-3.1,7-3.1C315.6,70.5,317.7,71.3,319.1,72.9z"/>
	<path class="st0" d="M340.5,71.5c1.5,0.6,2.7,1.7,3.5,3.2c0.8,1.9,1.2,4,1.1,6.1v13.7h-5.5l-0.5-2.3h-0.3c-0.7,0.9-1.6,1.6-2.7,2
		c-1.1,0.5-2.3,0.7-3.5,0.7c-1.4,0-2.8-0.3-4.1-0.9c-1.1-0.5-2-1.4-2.6-2.4c-0.6-1.1-0.9-2.3-0.9-3.6c-0.1-2,0.8-3.9,2.3-5.2
		c1.6-1.2,4-2,7.3-2.2l4-0.3v-0.1c0-0.9-0.1-1.8-0.5-2.7c-0.4-0.7-1-1.2-1.7-1.4c-1-0.3-2.1-0.4-3.1-0.4c-1,0-2.1,0.1-3.1,0.3
		c-1.1,0.2-2.1,0.4-3.2,0.8v-5.2c1.2-0.4,2.4-0.6,3.7-0.8c1.3-0.2,2.5-0.3,3.8-0.3C336.4,70.5,338.5,70.8,340.5,71.5z M336.7,89.8
		c0.7-0.3,1.3-0.7,1.8-1.2v-4.3l-3.3,0.3c-1,0-2,0.3-2.8,0.9c-0.6,0.5-0.9,1.2-0.9,2c0,0.8,0.2,1.5,0.8,2c0.7,0.5,1.5,0.8,2.3,0.7
		C335.4,90.2,336.1,90.1,336.7,89.8L336.7,89.8z"/>
</g>
<g id="Argentina">
	<path class="st0" d="M173.9,52.9l-2.6-8.4h-11.8l-2.6,8.4h-6.6l10.3-31.5h9.8l10.3,31.5H173.9z M161.3,38.9h8.3l-4.2-13.4
		L161.3,38.9z"/>
	<path class="st0" d="M183.6,29.6h5.4l0.5,2.9h0.3c0.6-1,1.5-1.8,2.5-2.4c1.1-0.6,2.3-0.8,3.5-0.8c0.6,0,1.3,0.1,1.9,0.2v6.3
		c-0.7-0.1-1.5-0.2-2.3-0.2c-1,0-2,0.2-3,0.6c-0.9,0.3-1.7,0.9-2.3,1.7v15.1h-6.6V29.6z"/>
	<path class="st0" d="M200.8,61.6v-5.5c1.3,0.4,2.6,0.7,3.9,0.9c1.2,0.2,2.4,0.3,3.6,0.3c1.3,0,2.6-0.1,3.8-0.6
		c0.9-0.3,1.6-0.9,2.1-1.8c0.5-1,0.7-2,0.7-3.1v-1.5h-0.3c-0.7,0.8-1.6,1.4-2.6,1.9c-1.1,0.5-2.3,0.7-3.5,0.7
		c-3.4,0.1-6.5-1.9-7.9-5c-0.9-1.9-1.3-4.1-1.2-6.2c0-4,1.1-7.1,3.3-9.3c2.2-2.2,5.5-3.3,9.7-3.2c1.6,0,3.2,0.1,4.8,0.4
		c1.5,0.2,2.9,0.5,4.3,1v20c0.1,2.4-0.4,4.8-1.4,6.9c-0.9,1.8-2.3,3.2-4.1,4c-2.3,0.9-4.7,1.4-7.1,1.3
		C206.1,62.7,203.4,62.4,200.8,61.6z M213,46.9c0.7-0.3,1.4-0.6,1.9-1.2V34.9c-1-0.3-2-0.4-3-0.4c-1.6-0.1-3.3,0.5-4.4,1.6
		c-1.1,1.4-1.6,3.2-1.5,5c0,2.2,0.4,3.8,1.3,4.7c0.9,1,2.2,1.5,3.6,1.4C211.6,47.3,212.3,47.1,213,46.9z"/>
	<path class="st0" d="M246.4,43.2h-14.2c0,1,0.3,2,0.8,2.9c0.5,0.8,1.3,1.3,2.2,1.5c1.3,0.4,2.7,0.5,4.1,0.5c2,0,3.9-0.3,5.8-0.7
		v5.1c-2.2,0.5-4.5,0.8-6.8,0.8c-2.5,0.1-4.9-0.4-7.2-1.3c-1.8-0.8-3.3-2.2-4.2-4c-1-2.2-1.4-4.5-1.3-6.9c-0.1-2.2,0.4-4.5,1.3-6.5
		c0.8-1.7,2-3.2,3.6-4.1c1.8-1,3.8-1.5,5.8-1.4c3.3,0,5.8,1.1,7.5,3.2s2.6,5.1,2.6,9.1V43.2z M233.2,34.9c-0.8,1.3-1.2,2.8-1.1,4.3
		h8.1c0.1-1.5-0.3-3-1.1-4.3c-0.7-0.9-1.8-1.4-2.9-1.3C235.1,33.5,234,34,233.2,34.9z"/>
	<path class="st0" d="M250.2,29.6h5.4l0.4,2.3h0.3c0.9-0.9,1.9-1.6,3.1-2c1.2-0.5,2.5-0.7,3.8-0.7c2.2-0.1,4.4,0.7,5.9,2.3
		c1.5,1.6,2.2,4,2.2,7.3v14h-6.6V39.2c0.1-1.1-0.2-2.2-0.9-3.1c-0.7-0.6-1.6-1-2.5-0.9c-0.8,0-1.7,0.2-2.5,0.5
		c-0.8,0.3-1.4,0.8-1.9,1.5v15.6h-6.6L250.2,29.6z"/>
	<path class="st0" d="M290.8,47.3v5.5c-0.6,0.2-1.3,0.3-2.1,0.4c-0.7,0.1-1.4,0.1-2.2,0.2c-5.7,0-8.5-2.9-8.5-8.8v-9.4h-3.8v-5.6
		h3.8l1.2-8.2h5.4v8.2h6v5.6h-6v8.1c0,0.9,0.1,1.7,0.4,2.6c0.2,0.6,0.6,1.1,1.2,1.4c0.7,0.3,1.4,0.4,2.1,0.4
		C289.2,47.6,290,47.5,290.8,47.3z"/>
	<path class="st0" d="M294.6,25.3c-0.7-0.7-1.1-1.6-1-2.6c-0.1-1,0.3-2,1-2.6c1.9-1.2,4.3-1.2,6.1,0c0.7,0.7,1.1,1.7,1,2.6
		c0.1,1-0.3,1.9-1,2.6C298.9,26.5,296.5,26.5,294.6,25.3z M294.4,52.9V29.6h6.6v23.3L294.4,52.9z"/>
	<path class="st0" d="M306.1,29.6h5.4l0.4,2.3h0.3c0.9-0.9,1.9-1.6,3.1-2c1.2-0.5,2.5-0.7,3.8-0.7c2.2-0.1,4.4,0.7,5.9,2.3
		c1.5,1.6,2.2,4,2.2,7.3v14h-6.6V39.2c0.1-1.1-0.2-2.2-0.9-3.1c-0.7-0.6-1.6-1-2.5-0.9c-0.8,0-1.7,0.2-2.5,0.5
		c-0.8,0.3-1.5,0.9-2,1.5v15.6h-6.6L306.1,29.6z"/>
	<path class="st0" d="M346.5,30.2c1.5,0.6,2.7,1.7,3.4,3.2c0.8,1.9,1.2,3.9,1.1,6v13.5h-5.5l-0.5-2.2h-0.3c-0.7,0.9-1.6,1.6-2.7,2
		c-1.1,0.5-2.3,0.7-3.5,0.7c-1.4,0-2.8-0.3-4.1-0.8c-1.1-0.5-2-1.4-2.6-2.4c-0.6-1.1-0.9-2.3-0.9-3.5c-0.1-2,0.8-3.9,2.3-5.1
		c1.5-1.2,4-1.9,7.3-2.2l4-0.3v-0.1c0-0.9-0.1-1.8-0.5-2.6c-0.4-0.7-1-1.1-1.7-1.4c-1-0.3-2.1-0.4-3.1-0.4c-1,0-2.1,0.1-3.1,0.3
		c-1.1,0.2-2.1,0.4-3.2,0.8v-5.2c1.2-0.4,2.4-0.6,3.7-0.8c1.3-0.2,2.5-0.3,3.8-0.3C342.5,29.1,344.5,29.5,346.5,30.2z M342.8,48.2
		c0.7-0.2,1.3-0.6,1.8-1.2v-4.3l-3.3,0.3c-1,0-2,0.3-2.8,0.9c-1.1,1.1-1.1,2.8-0.1,3.9c0,0,0,0,0,0c0.7,0.5,1.5,0.8,2.3,0.7
		C341.4,48.6,342.1,48.5,342.8,48.2L342.8,48.2z"/>
</g>
</svg>
