<svg xmlns="http://www.w3.org/2000/svg" viewBox="0 0 351.04 104.48"><defs><style>.cls-1{fill:#fff;}</style></defs><title>logoarg_blanco_svg</title><g id="Shell"><path class="cls-1" d="M110.55,3q-47.49,0-95,0C7.58,3,2.31,8.11,2.3,16q0,33.93,0,67.86c0,7.9,5.26,13,13.28,13h95c8.24,0,13.42-5.15,13.42-13.36q0-33.57,0-67.14C124,8.16,118.75,3,110.55,3ZM33.81,68c-2,2.34-4.47,2.62-6.58.93s-2.26-4.39-.29-6.78C30.5,57.84,34,53.47,37.75,49.26c1.43-1.61,1.27-2.6-.08-4.13-3.62-4.08-7.07-8.3-10.56-12.5-2.1-2.53-2-5.24.08-7s4.7-1.39,6.93,1.25c4.75,5.64,9.47,11.32,14.2,17a5.56,5.56,0,0,1,1.56,3.42,5,5,0,0,1-1.33,3.25C43.64,56.37,38.76,62.23,33.81,68Zm49,12.56q-14.64,0-29.29,0c-3,0-5-1.72-4.94-4.13s2-4.07,5-4.09c4.92,0,9.84,0,14.76,0s9.69,0,14.53,0c3,0,4.89,1.64,4.87,4.14S85.79,80.59,82.78,80.59Z" transform="translate(-2.28 -2.94)"/></g><g id="Letras"><path class="cls-1" d="M154.37,73.88h5.57l.38,2.46h.3a8.05,8.05,0,0,1,2.75-2.07,8.4,8.4,0,0,1,3.6-.75,9.91,9.91,0,0,1,4.92,1.21,8.57,8.57,0,0,1,3.44,3.85,15.13,15.13,0,0,1,1.27,6.63,15.31,15.31,0,0,1-1.44,6.94,9.72,9.72,0,0,1-4.2,4.33,14.12,14.12,0,0,1-6.66,1.46,25.77,25.77,0,0,1-3.28-.23V107h-6.65Zm14.15,17Q170,89.23,170,85.73t-1.27-5a4.46,4.46,0,0,0-3.58-1.48,6,6,0,0,0-2.26.44A4.93,4.93,0,0,0,161,81.07V92.18a13.73,13.73,0,0,0,3,.32A5.75,5.75,0,0,0,168.52,90.86Z" transform="translate(-2.28 -2.94)"/><path class="cls-1" d="M180.7,73.88h5.44l.52,2.91H187a6.39,6.39,0,0,1,2.54-2.41,7.51,7.51,0,0,1,3.52-.82,12.11,12.11,0,0,1,1.87.17v6.41a11.26,11.26,0,0,0-2.27-.17,8,8,0,0,0-3,.58,5.33,5.33,0,0,0-2.3,1.68V97.49H180.7Z" transform="translate(-2.28 -2.94)"/><path class="cls-1" d="M201.8,96.55a9.45,9.45,0,0,1-4-4.14,14.71,14.71,0,0,1-1.39-6.7A15,15,0,0,1,197.8,79a9.25,9.25,0,0,1,3.9-4.11,14.42,14.42,0,0,1,12.31,0A9.12,9.12,0,0,1,217.9,79a15.15,15.15,0,0,1,1.34,6.7,14.66,14.66,0,0,1-1.39,6.68,9.51,9.51,0,0,1-3.95,4.15,12.34,12.34,0,0,1-6,1.4A12.53,12.53,0,0,1,201.8,96.55Zm9.63-5.69q1.2-1.58,1.2-5.13c0-2.4-.4-4.13-1.2-5.17a4.9,4.9,0,0,0-7.16,0q-1.22,1.56-1.21,5.14t1.2,5.17a4.86,4.86,0,0,0,7.17,0Z" transform="translate(-2.28 -2.94)"/><path class="cls-1" d="M224.2,106.36v-5.55a31.05,31.05,0,0,0,4,.88,24.92,24.92,0,0,0,3.58.29,10.37,10.37,0,0,0,3.78-.57,4,4,0,0,0,2.09-1.78,6.65,6.65,0,0,0,.66-3.18V95H238a7.45,7.45,0,0,1-2.67,1.93,9,9,0,0,1-3.5.66,8.66,8.66,0,0,1-4.59-1.26,8.78,8.78,0,0,1-3.28-3.83,14.44,14.44,0,0,1-1.23-6.28q0-6.12,3.33-9.4t9.79-3.26a32.73,32.73,0,0,1,4.78.35,26.65,26.65,0,0,1,4.34,1V95.12a15.62,15.62,0,0,1-1.37,7,8.56,8.56,0,0,1-4.16,4,17.09,17.09,0,0,1-7.15,1.29A29.6,29.6,0,0,1,224.2,106.36Zm12.18-15a5.27,5.27,0,0,0,1.89-1.17V79.3a11.84,11.84,0,0,0-3-.39,5.7,5.7,0,0,0-4.44,1.64,7.29,7.29,0,0,0-1.5,5q0,3.34,1.28,4.77a4.58,4.58,0,0,0,3.6,1.42A6.21,6.21,0,0,0,236.38,91.39Z" transform="translate(-2.28 -2.94)"/><path class="cls-1" d="M250.06,73.88h5.43l.52,2.91h.32a6.3,6.3,0,0,1,2.53-2.41,7.51,7.51,0,0,1,3.52-.82,12,12,0,0,1,1.87.17v6.41A11.26,11.26,0,0,0,262,80a8,8,0,0,0-3,.58,5.33,5.33,0,0,0-2.3,1.68V97.49h-6.64Z" transform="translate(-2.28 -2.94)"/><path class="cls-1" d="M280.61,74.49a6.54,6.54,0,0,1,3.45,3.2,13.88,13.88,0,0,1,1.11,6.1v13.7h-5.49l-.46-2.27h-.3a6.57,6.57,0,0,1-2.67,2,8.91,8.91,0,0,1-3.52.67,9.12,9.12,0,0,1-4.12-.86,6,6,0,0,1-2.6-2.42,7.09,7.09,0,0,1-.88-3.58,6.28,6.28,0,0,1,2.31-5.21q2.32-1.84,7.28-2.19l4-.33v-.08a5.53,5.53,0,0,0-.53-2.66,3,3,0,0,0-1.69-1.38,9.85,9.85,0,0,0-3.15-.41,21.37,21.37,0,0,0-3.13.26,18.5,18.5,0,0,0-3.18.76V74.57a23,23,0,0,1,3.66-.79,28.16,28.16,0,0,1,3.78-.26A16.24,16.24,0,0,1,280.61,74.49Zm-3.73,18.25a4.84,4.84,0,0,0,1.8-1.16V87.26l-3.34.28a5,5,0,0,0-2.78.89,2.48,2.48,0,0,0-.85,2,2.54,2.54,0,0,0,.79,2,3.37,3.37,0,0,0,2.32.7A5.86,5.86,0,0,0,276.88,92.74Z" transform="translate(-2.28 -2.94)"/><path class="cls-1" d="M321.38,75.89q2.08,2.37,2.09,7.4v14.2h-6.63V83.68a4.79,4.79,0,0,0-.81-3.14,2.8,2.8,0,0,0-2.27-.94,5,5,0,0,0-2,.42,4.25,4.25,0,0,0-1.63,1.26,16.76,16.76,0,0,1,.08,1.86V97.49h-6.51V83.68a5.17,5.17,0,0,0-.74-3.15,2.68,2.68,0,0,0-2.22-.93,4.71,4.71,0,0,0-2.2.54,4.57,4.57,0,0,0-1.72,1.55v15.8h-6.65V73.88h5.45l.44,2.35h.3a8,8,0,0,1,2.85-2,9.24,9.24,0,0,1,3.6-.69,7.66,7.66,0,0,1,3.44.75,6,6,0,0,1,2.47,2.31,9.37,9.37,0,0,1,7-3.06A7.22,7.22,0,0,1,321.38,75.89Z" transform="translate(-2.28 -2.94)"/><path class="cls-1" d="M342.76,74.49a6.49,6.49,0,0,1,3.44,3.2,13.72,13.72,0,0,1,1.12,6.1v13.7h-5.5l-.46-2.27h-.29a6.57,6.57,0,0,1-2.67,2,8.94,8.94,0,0,1-3.52.67,9.12,9.12,0,0,1-4.12-.86,6,6,0,0,1-2.6-2.42,7.1,7.1,0,0,1-.89-3.58,6.26,6.26,0,0,1,2.32-5.21c1.55-1.23,4-2,7.28-2.19l4-.33v-.08a5.65,5.65,0,0,0-.53-2.66,3,3,0,0,0-1.69-1.38,9.92,9.92,0,0,0-3.16-.41,21.36,21.36,0,0,0-3.12.26,18.62,18.62,0,0,0-3.19.76V74.57a23.43,23.43,0,0,1,3.67-.79,27.94,27.94,0,0,1,3.78-.26A16.24,16.24,0,0,1,342.76,74.49ZM339,92.74a4.84,4.84,0,0,0,1.8-1.16V87.26l-3.35.28a5,5,0,0,0-2.77.89,2.45,2.45,0,0,0-.85,2,2.5,2.5,0,0,0,.79,2,3.35,3.35,0,0,0,2.32.7A5.86,5.86,0,0,0,339,92.74Z" transform="translate(-2.28 -2.94)"/><path class="cls-1" d="M176.24,55.81l-2.62-8.39H161.81l-2.62,8.39h-6.62L162.85,24.3h9.79l10.28,31.51Zm-12.7-14h8.35l-4.17-13.34Z" transform="translate(-2.28 -2.94)"/><path class="cls-1" d="M185.88,32.52h5.42l.52,2.87h.32A6.22,6.22,0,0,1,194.67,33a7.56,7.56,0,0,1,3.51-.81,11.88,11.88,0,0,1,1.86.17v6.32a11.86,11.86,0,0,0-2.26-.17,7.89,7.89,0,0,0-3,.58,5.16,5.16,0,0,0-2.3,1.66V55.81h-6.63Z" transform="translate(-2.28 -2.94)"/><path class="cls-1" d="M203.1,64.56V59.09a30.92,30.92,0,0,0,4,.86,24.9,24.9,0,0,0,3.57.29,10.37,10.37,0,0,0,3.78-.57,3.93,3.93,0,0,0,2.09-1.75,6.59,6.59,0,0,0,.65-3.13V53.32h-.32a7.47,7.47,0,0,1-2.67,1.89,8.86,8.86,0,0,1-3.49.66,8.33,8.33,0,0,1-7.85-5,14.13,14.13,0,0,1-1.23-6.2q0-6,3.32-9.27t9.78-3.22a32.69,32.69,0,0,1,4.77.35,24.63,24.63,0,0,1,4.33,1v20a15.27,15.27,0,0,1-1.37,6.92,8.5,8.5,0,0,1-4.16,4,17.35,17.35,0,0,1-7.13,1.26A29.58,29.58,0,0,1,203.1,64.56Zm12.16-14.77a5.25,5.25,0,0,0,1.89-1.16V37.86a12.23,12.23,0,0,0-3-.38,5.72,5.72,0,0,0-4.43,1.62,7.18,7.18,0,0,0-1.49,5c0,2.2.42,3.77,1.27,4.7a4.6,4.6,0,0,0,3.6,1.41A6.16,6.16,0,0,0,215.26,49.79Z" transform="translate(-2.28 -2.94)"/><path class="cls-1" d="M248.69,46.14H234.46a6,6,0,0,0,.81,2.91,4,4,0,0,0,2.2,1.53,14,14,0,0,0,4.12.48,26.46,26.46,0,0,0,5.81-.7v5.11a30.41,30.41,0,0,1-6.8.79A17.42,17.42,0,0,1,233.42,55a8.47,8.47,0,0,1-4.18-3.93,15.08,15.08,0,0,1-1.36-6.84,15.54,15.54,0,0,1,1.25-6.54,9.07,9.07,0,0,1,3.66-4.11,11.3,11.3,0,0,1,5.82-1.4q4.94,0,7.5,3.16t2.58,9.1Zm-13.17-8.27a7.61,7.61,0,0,0-1.08,4.33h8.11a7.79,7.79,0,0,0-1.07-4.33,3.44,3.44,0,0,0-2.95-1.33A3.55,3.55,0,0,0,235.52,37.87Z" transform="translate(-2.28 -2.94)"/><path class="cls-1" d="M252.52,32.52H258l.43,2.3h.3a8.9,8.9,0,0,1,3.06-2,10.31,10.31,0,0,1,3.78-.69,7.71,7.71,0,0,1,5.93,2.34q2.17,2.34,2.17,7.3v14H267V42.2a4.52,4.52,0,0,0-.86-3.11,3.27,3.27,0,0,0-2.54-.93,6.18,6.18,0,0,0-2.45.51,5,5,0,0,0-2,1.51V55.81h-6.64Z" transform="translate(-2.28 -2.94)"/><path class="cls-1" d="M293.06,50.23v5.49a18.59,18.59,0,0,1-2.09.39,16.5,16.5,0,0,1-2.17.15q-8.52,0-8.52-8.78V38.12h-3.76v-5.6h3.76l1.19-8.22h5.45v8.22h6v5.6h-6v8.09a7.09,7.09,0,0,0,.38,2.56,2.45,2.45,0,0,0,1.21,1.35,4.8,4.8,0,0,0,2.14.41A12.9,12.9,0,0,0,293.06,50.23Z" transform="translate(-2.28 -2.94)"/><path class="cls-1" d="M296.91,28.23a3.37,3.37,0,0,1-1-2.63,3.37,3.37,0,0,1,1-2.65A5.6,5.6,0,0,1,303,23a3.34,3.34,0,0,1,1,2.65,3.34,3.34,0,0,1-1,2.63,5.65,5.65,0,0,1-6.12,0Zm-.26,27.58V32.52h6.64V55.81Z" transform="translate(-2.28 -2.94)"/><path class="cls-1" d="M308.42,32.52h5.44l.44,2.3h.3a8.9,8.9,0,0,1,3.06-2,10.22,10.22,0,0,1,3.77-.69,7.71,7.71,0,0,1,5.93,2.34q2.17,2.34,2.18,7.3v14H322.9V42.2a4.52,4.52,0,0,0-.85-3.11,3.29,3.29,0,0,0-2.55-.93,6.22,6.22,0,0,0-2.45.51,5.09,5.09,0,0,0-2,1.51V55.81h-6.63Z" transform="translate(-2.28 -2.94)"/><path class="cls-1" d="M348.77,33.11a6.51,6.51,0,0,1,3.44,3.17,13.48,13.48,0,0,1,1.11,6V55.81h-5.48l-.46-2.24h-.3a6.52,6.52,0,0,1-2.66,2,10,10,0,0,1-7.63-.2A5.93,5.93,0,0,1,334.2,53a6.94,6.94,0,0,1-.89-3.54,6.16,6.16,0,0,1,2.32-5.14q2.31-1.82,7.26-2.16l3.95-.32v-.08a5.49,5.49,0,0,0-.52-2.62,2.94,2.94,0,0,0-1.69-1.36,9.89,9.89,0,0,0-3.15-.41,21.36,21.36,0,0,0-3.12.26,19.5,19.5,0,0,0-3.18.74V33.2a23.08,23.08,0,0,1,3.66-.78,29.64,29.64,0,0,1,3.77-.26A16.63,16.63,0,0,1,348.77,33.11Zm-3.72,18A5,5,0,0,0,346.84,50V45.72l-3.33.27a5.14,5.14,0,0,0-2.78.88,2.44,2.44,0,0,0-.84,2,2.47,2.47,0,0,0,.79,1.95,3.39,3.39,0,0,0,2.31.69A6.08,6.08,0,0,0,345.05,51.13Z" transform="translate(-2.28 -2.94)"/></g></svg>