<?xml version="1.0" encoding="utf-8"?>
<!-- Generator: Adobe Illustrator 24.0.1, SVG Export Plug-In . SVG Version: 6.00 Build 0)  -->
<svg version="1.1" id="Capa_1" xmlns="http://www.w3.org/2000/svg" xmlns:xlink="http://www.w3.org/1999/xlink" x="0px" y="0px"
	 viewBox="0 0 192.8 192.8" style="enable-background:new 0 0 192.8 192.8;" xml:space="preserve">
<style type="text/css">
	.st0{fill-rule:evenodd;clip-rule:evenodd;fill:#3174B9;}
	.st1{fill-rule:evenodd;clip-rule:evenodd;fill:#CA3132;}
</style>
<g>
	<path class="st0" d="M78.9,102.2c0,0-5,3,3.6,3.9c10.5,1.2,15.8,1,27.4-1.2c0,0,3.1,1.9,7.2,3.5C91.1,119.7,58.5,107.9,78.9,102.2z
		 M75.7,87.7c0,0-5.7,4.2,3,5C89.8,94,98.7,94,114,91.1c0,0,2.1,2.2,5.5,3.3C88.1,103.6,53.3,95.2,75.7,87.7z"/>
	<path class="st1" d="M102.3,63.2c6.4,7.3-1.6,13.9-1.6,13.9s16.2-8.3,8.8-18.9c-6.9-9.8-12.3-14.6,16.6-31.4
		C126,27,80.7,38.3,102.3,63.2z"/>
	<path class="st0" d="M136.5,113c0,0,3.7,3.1-4.2,5.5c-14.9,4.5-62.2,5.9-75.3,0.2c-4.7-2.1,4.2-4.9,6.9-5.5
		c2.9-0.7,4.6-0.5,4.6-0.5c-5.3-3.7-33.9,7.2-14.6,10.4C106.8,131.5,150.3,119.1,136.5,113z M81.3,72.8c0,0-24,5.7-8.6,7.8
		c6.6,0.9,19.6,0.7,31.8-0.3c10-0.9,20-2.6,20-2.6s-3.5,1.5-6,3.2c-24.5,6.5-71.5,3.4-58-3.2C72,72.2,81.3,72.8,81.3,72.8z
		 M124.4,96.8c24.8-12.9,13.4-25.2,5.4-23.6c-2,0.4-2.9,0.8-2.9,0.8s0.8-1.1,2.1-1.6c15.8-5.6,28,16.5-5.2,25.1
		C123.8,97.5,124.3,97.2,124.4,96.8z"/>
	<path class="st1" d="M109.5,0c0,0,13.7,13.7-13.1,34.9c-21.5,17-4.9,26.6,0,37.6C83.8,61.2,74.7,51.3,80.8,42
		C89.8,28.4,114.9,21.8,109.5,0z"/>
	<path class="st0" d="M83.7,131.8c23.8,1.5,60.3-0.9,61.2-12.1c0,0-1.6,4.3-19.6,7.7c-20.3,3.8-45.4,3.4-60.2,0.9
		C65,128.3,68,130.8,83.7,131.8z"/>
	<path class="st1" d="M143.8,152h-0.7v-0.4h2v0.4h-0.8v2h-0.5V152z M147.7,152.1L147.7,152.1l-0.8,2h-0.3l-0.8-2l0,0v2h-0.4v-2.4
		h0.7l0.7,1.8l0.7-1.8h0.7v2.4h-0.4L147.7,152.1L147.7,152.1L147.7,152.1z M79.8,174.8c-2.2,2-4.6,3.1-6.8,3.1
		c-3.1,0-4.7-1.9-4.7-4.7c0-3.2,1.8-5.5,8.8-5.5h2.6L79.8,174.8L79.8,174.8z M86,181.8v-21.6c0-5.5-3.2-9.2-10.7-9.2
		c-4.4,0-8.3,1.1-11.5,2.5l0.9,3.8c2.5-0.9,5.7-1.8,8.9-1.8c4.4,0,6.3,1.8,6.3,5.4v2.7h-2.2c-10.6,0-15.5,4.2-15.5,10.3
		c0,5.4,3.2,8.3,9.1,8.3c3.8,0,6.7-1.5,9.3-3.9l0.4,3.3h5V181.8z M106.7,181.8H99l-9.3-30.3h6.8l5.8,18.6l1.3,5.6
		c3-8.1,4.9-16.3,6-24.2h6.6C114.3,161.5,111.1,172.5,106.7,181.8z M136.3,174.8c-2.3,2-4.6,3.1-6.8,3.1c-3.1,0-4.7-1.9-4.7-4.7
		c0-3.2,1.8-5.5,8.8-5.5h2.6v7.1H136.3z M142.6,181.8v-21.6c0-5.5-3.2-9.2-10.7-9.2c-4.4,0-8.3,1.1-11.5,2.5l0.9,3.8
		c2.5-0.9,5.7-1.8,8.9-1.8c4.4,0,6.3,1.8,6.3,5.4v2.7h-2.2c-10.6,0-15.5,4.2-15.5,10.3c0,5.4,3.2,8.3,9.1,8.3c3.8,0,6.7-1.5,9.3-3.9
		l0.4,3.3h5V181.8z M55.4,187c-1.8,2.6-4.6,4.6-7.8,5.8l-3.1-3.6c2.4-1.2,4.4-3.2,5.4-5c0.8-1.6,1.2-3.7,1.2-8.8v-34.5h6.6v34.1
		C57.7,181.6,57.1,184.4,55.4,187z"/>
</g>
</svg>
