<svg id="Capa_1" data-name="Capa 1" xmlns="http://www.w3.org/2000/svg" viewBox="0 0 439 633.67"><defs><style>.cls-1{fill:#a2d5e6;stroke:#000;stroke-miterlimit:10;}</style></defs><title>malvinas</title><path class="cls-1" d="M407.26,198.16l-93-27.42c-16.57-21.36-35-49.94-36.06-73.8-1.81-42.14-25.45-62.89-51.05-71s-67.06-3.07-85.11-9.32C107.06,3.58,93.3,5.28,88,11c-4.24,4.55,17.54,8.27,38.38,17s37.37,18.19,45,30,17.11,23.85,20.48,36.66,0,28.22-11.67,43.1c-7.19,9.14-9.88,17.58-28.55,30.29l-102,30.09a28.1,28.1,0,0,0-20,26.8v91.39l22.36-2.68V225a5.63,5.63,0,0,1,4-5.36l159.85-47.14a44.64,44.64,0,0,1,25.3,0L400.94,219.6a5.63,5.63,0,0,1,4,5.36v88.89l22.35,2.68V225A28.09,28.09,0,0,0,407.26,198.16Z" transform="translate(-8.5 -6.2)"/><path class="cls-1" d="M356.12,515.3A279.61,279.61,0,0,1,230.58,616.58a5.66,5.66,0,0,1-4.28,0A280.52,280.52,0,0,1,67.74,450.33l-24.53-2.92A302.85,302.85,0,0,0,217.87,637.29a27.87,27.87,0,0,0,21.13,0A301.81,301.81,0,0,0,374.56,527.94a300.58,300.58,0,0,0,39.11-80.55l-24.51,2.89A278.16,278.16,0,0,1,356.12,515.3Z" transform="translate(-8.5 -6.2)"/><path class="cls-1" d="M358.31,453.89a262.67,262.67,0,0,1-28,51.05A264.57,264.57,0,0,1,237,587a18.34,18.34,0,0,1-17.08,0,264.45,264.45,0,0,1-121.27-133l130.25,15.11ZM246,490.45l-1.06.12,1.53-2-1.19-.83,3.81-1.07.85-.94h-1.2l-1-.74-3.93-1.4-2.48-2.25-1.2.12.48.35-.37,1-2-.6-.23.6.95,2-1.91.95,1.91.48,1.66,1.88-1.78.93-1.05.87-3.7-.87.46,1.94-2.61-2,4.28-2.73V485l-3.89,2.75-2.88.35-4.05,1.06-1.9-.34-1.78.58-.35-1.88,3.8-.35-.83-.72-1.9-.23-2.36-.12-.38-.48,1.67-.25.35-1.42-3,1.05L219,484l-1.17-.23-.59.8-1.32-.32-.23,1-.58.1-1.66.85-.61-1.07,1.07-1.2-2.85-.35.46,1.4.61.27-.49.35-2-.62.84.74L209,487.12l-.73.7,1.3,1.08,2-.48,2.17,1.88-2.64.62-.36.7-1.19-.35L209,492h-.59l-2.15.47-1.53-.95-2.17.48-5.1-2.63-1.9-2.83-3.32-2.62-3-.95-2.37-1.41-3.58-1.69L184.9,482l-1.57-.48-.35.58,1.08,1.18.12.6-1.2,1.42,2.25.6.74,1.55,3.68.58.93-.35,1.57-.7.81,1.63,2.62,2.29.83,1.88-5.72-1.42-.81.49.12,2.24,5.11,3.32,2.74.85,1.06-.6,1,1.67,2.36,1-.6,1,1.18.34,1.57,1.09.69,2,2.39.36.6-.83.72,1.41,1.3.38.95.81-2.25-.46,1.05,1.66-1.54-.35-.48-.85-2.25-.46-.81-1.56-2.17-1.16-1.19,1.16-1.41.35-3.57-.35-2.73,1.32-2.85.84-2.73-.6-1.91-1.42H185L183.6,504l-.74,1.2,3.47,6.29.68.13.64,2.23,1.16-.35-.37-1.41,1.93-.82.93.59,3.21-1.93,2.62.63-1.07-2.16-.34-.95,3.19-.57.23,1.41,1.79-.84.46-1.43,3.36,2.27-.83,3.93-.61,1.63-.83-1.28-1.09.23-.81-2-2.62,1.2,1.3.6-.12.7-1.29,1.06,1.29.74v1.3l-1.43-.35.25,1.88-1,1.57-.36-1.2-1.44-.37-1.53.86,3.2-3.34-.7-1.09-2.27.74,2.5-2.73-1.43-.12-1.79,1.28-.23-.93-.93.12-.5,3.2.85,1.31-1.32,2,1.9.1-1.53,1.92-1.32.81-.23,1.32-1.53.72-2.64-.95-1.06-.61-1.32.12.85,1.44,2.36.13,2.27,1.18,4.87-2.5,1.53.61-2,2.57-2.36.62-3.18.35.08,1.42-2.25.6,1.3-1.07-.93-.58-1.9.23.23-1-1.44-.25-.62,3.85-.67-.75.48-2.85-.18-.27-.42.53-.35,2.34-.43.53-.4-.63.11-2.87-5.95-.25,1.44,1.81-.25.83,3.56-.37-.12,1.78L175,531.3l-2.6-1,.82,2.86,1.64.47-1.53.83-1.55-.83-.7-2.48-1.32,1-2.24-.25-.33-2.26,1.05-.11-.37-1.2-.72.37-.08.7-2.17-.12-1.43.25,1.66.68v3.12l1.55,1.18.1-.83-.93-1.06.58-.47,1.92,2.73,1.76,2,3.69.84.35,1.9h1.57L176,542l3.06-.37-5-4.85,1.32-1.32,1.09,1.32,1.64-.25.23,1.07,1.69-1.3,1.53,2-1.53-.12-1,1.79,1.3-.72.37,1.44,1.07-.14-.72,1.44h1.66l-.11,1.06,1.55.58-.35.72-2.38-1,.21,2.15.72.24.36,1.76,1.91-.35v-1.3l.58.46.48-.94,1.2-.12,2.27-1.78-.37-.59,1.3-1.18-2.25-2.26-1.43,1.41.58-2.48-1.88-.12,2.73-.83,1.55,2.38,1.89.49-.24.69,1.2.72.47-.58-.83-.83.48-.85h1.42l-.24,2.13,1.55.48.72-.58-1-1.32.47-.71.71,1,1.3-.25,2.37-4.15,1.2-.85.25-4-1.31,3.43V531.3l-.36-.74,1-1.88,1.77-.25-.47,1.2,4-.47,1.3.82,1.44-1.19-.35-1.9,1.3-.85,1,.85.95-.6,1.32.47v1.09l-.47.71.23,1,2.48-1.3,1.79-2.27.58,1.44,1.92-1.8.35-3.69,2-1.51v-1.66L229.1,511l-1-1.09h1.55l2-2.25-.23-1.27,1.42-.85-.21-2.12,1.64-2.5,1.2-.83-1.78,3.43,1.05-.6,2.15-3.45.85.25-1.22,1.06-.09,1.67h.94l1.88-1.9,1.07-.13.51-2.35,1.64-3.1-2.52.6,1.94-1.44L240.61,493l1.32-.09-.71-1.21.59-.11,1.05,1.41v1.22l.62.21,2.37-3.19,1.18-.49,2.62-2-1.67.34ZM314.6,508.9l-2.25,1-3.2-.12.7-1.25-2.25-.16,1.11-.4,2,.28,1.67-1.27,1.11.86.58-1,2.36-.58-2.06-.84-.58-.7-2.66-.57-1.69-1.25-7-1-1-1.53h-1.39l.12,1-1.79-1.25.82-.56-2.49-1.41,3-.72-.26-1.11,3.64,1.41-.14-1.27L301.58,495l.58-.16.69,1,1.95.56.84,2.11,8.7.43.81-.55-.15-1-1.81-.71-1.67-.3-1.13-.26V495l.85-.28,2.22,1.53,1.14.54,1.8.59-.13-.87-3.08-2.07-1.95-2.8.7-2.25L310.11,488l-.14-1-1.81-1.25-4.2.55-1.11-.55-10.91,1-1.27,3.5-3.77,3.32,1,.44-.26,1.54,1.67.56,2.09-1.67-.82,1.93,1.79.71,3.1.3-2.66,1.53.42,1.39-1.95-1.11-2-1.13-.28,1.55-1.39-.7-.28-.85-1.13-1.11-1.39,2.78-.84-1.25.84-.7-.56-1,1.4-1.79-.7-2.8-1.25.55-1.69-.28-1.95,1.67.26-1.67-.67-.27,1.69-1.67-1.28-1.57-1.39.14.26-2.23,2-1.25-.44.71.16,1.67h.55l.72-1.25.54.42-.29,1.25,1.14,2.25,1.09.26,3.38-1,.42,1.26.56.11,1.11-2.5-.42-2,.16-2.37-1.83-.57-.14-1.23-1-1.11-2.25-.44-.67-1-4.77-.69-2.65,1.13v1.27l1.81.28-.42.82-2.48-.26.1-1.41-1.25.3-5.3-1.14L266.09,478l-2.4-.56-2.93-3.79-.71.43.71.82.3,2,1.95,1.25-.3,2.24,2.09,2.8L263,485l-4.63-.56v.84l.56.44.15,2.08-1.68.56-3.23-1.67-.67,1.93-.87.58-.14,1.67,1,.85,1.1-.85,4.21,2.52,1.8,1.81-2.78-1-1.55-.43v1.27l.84,6.83-.84-2.24-1.25-.54-1.13-5.44h-.83l-.7,4-1.67,1.69.12,1.11,3.08,1,2.94,3.93.16,2.66,1,3.5-.14,1.67,1.25.83-1.41,1.69-2.36,2,.83-4.19-.83-1.13,1.11-1.67-1-3.09-2.94.58-3.06,2.23-.4-1.26h-1.41l-1,3.36-1.83-1.24L244,512.4l1.27,2.38-.69.84-.42-1.1-1.53.42-.3-.72h-.69l-.12,3.34-1.71,1.27.16-2.8-4.49.72-1,1.25v1.53l2.07.26-.26,2-1.81-1.39-1.13.12.42,2.09,1.81,1-1.1,1.1-2-.14-1.12-2.65-1,.68-.56,2.94,2.81.7.14,1.55-3.37-1.12.42,1.55h1l.57,1.95-1-.44H227.9l2.4,2-.16,1.55,1.83,1.23-.16.7-2.37.58-.39,3.33-2-.4.42-1.11-2.36-1.13-.43,2.09,2.11,2.1,1.95.44,1.11,1.93-.69,2.26,3.08.12L231,547.21v1.55l2.94-.72.28,4.91,2.54-.57,1.79,1.25.71,1.67,3.36.41.12-2.08-1.53.41-1.25-.27-.56-1.53,2.11-.7-.3-1.81-2.52.54,2.26-1.81-.58-1.15,2-2.33-2.1-.15-2.49,2-.29-2.5,1-1.15-2.51-.68.86-1.27-.72-1.81,1.4.14,1.39,1.81-.56-3.34,1.69,2.09.84-.7-.15,1.69,2.09-1,.7.71-1.23.54.11,2.22,2.25-1.67,1,.86,1.53,4,1-1.53,2,.28v1l5.85,2.78v-1.54l-1.1-1.11.68-1.67-2.8.56.3-1.55h1.13l1.37-2,2-1.54-2.94-.68-1.53,1.65-.3-1.1-2.09,1.38-.14-1.81,3.36-1.41.41-.7-2.93-.81-.84.69-.4-1.11,2.63-.44-1.12-1.39v-2L248.6,535l-.28-.67L249,533l-.58-1.13-2.38-1.41,3.5.14.57-1.53,1.1.57,2,2.37,1.12-.4,1.53,1.39,1.27-.43.85,4.88,1.53-1.94,1.25,3.36,1.12-2.67,1.81.16-.28-2,2.26-.43-.13-1,2.34.68.86,2.52,1-.69,1.39,1.67L271,538l1.23,2.8.85-2.26-.85-2.65.71-.53-.29-1.71h-.54l-1.11-1,.55-.15,1,.27,2.94-.83-.14-2.07L274,528.49l-1.83.14-2.66-1-.81,1.53-1.26-1.39-4.77-2.65-.67-.87.55-.4,4.06,2.37h.83l-.28-.82-3.79-1.94-3.78-3h-1l-.42-.81-.26-2.13,1.11-.81.54-1.55h1.13l-.14,1.55.29.81.29,1.57,5.31,2.9,1.94.44,1.69.83,1.81-.83-.16,1.13,2,.56,1.51-.56,1.13.4,1.55-.83,1.39.13-1-1.67-1-1.68h1.11l1.53,2.24.69,1.41,8.39-1.57h1.95l1.81-.55.43-1.53,2.11-.54,1-1.69-3.36.4-1.52-.4-1,.54-2.11.29-.15-.55,1.69-1.13,2.36-.42.86.71,4.17-.57-3.46-.82.4-.71-1.53-.4.27-.72,3.07-.41-.26,1.25,4.61-.26,1.11-1.43.42,1.13.71-.42h5.19l1.09-.55-3.21-.28.85-.57H309l4.34-1.24,2.94-1.29,1-.81ZM175,496.85h-.72v.58l.49-.1Zm1.9,1.07.6.48,1.41-.35.49-.51-1.66-.36-1.09-.7-1.05.48.47.84Zm4.52,6.88,1-1.18.25-.72-1.08-2.83-.58-.62.13,1.55v2.62Zm-.37-15.55-1.3-.14.12.38,1.08.81,1-.7Zm8.33,1.53-.83.37.35.83.58-.48Zm1.75,4.89-1-.12-.46.35.46.83.83-.35Zm2.52,4.61-.83-.58-.95.11.58.95,1.2.37Zm-13.16-19.21.46,2,1.4-.47-.22-.83.47-.12v-.48l-.62-.24-.08-.83h-.85l-1.53-.81.35.81Zm-7.39,16,.6-.6-1.09-.46H172l.12.83Zm14.13-20.31.84-.23.34,1.18.74.62.33-1.21-.58-.83-.58-.23-1.67-2-.35-.46-.14.56-.34.48.34.72Zm5.47,3.68-.35-1.16-.6-.16-.25.62.5.7Zm1.67.85v.47l.95.7,1,.13-.24-.58-.71-.72Zm-38.5,23.61.48-.58-.14-.58-.57-.13-.24.58.1.48Zm.95-2.11-.47-.14V504l.6-.46Zm-2,4.13,1.32.48-.14-.57.84.09.23-.7L156,506l-.58-.82-.86-.36.26.94-.26,1Zm-2.25,2.15.23,1.79,1.4.58.37-1.42-.6-.46-.22-1.09.82-.58-.6-.83.5-.23-.5-.37-.7.23-1.18-1,.12,1.67Zm3.2.58.12-.7h-.7l-.25.61Zm45.15-24.21,1.65.12.73-.62H207l1.18.15-.48-1,.59-1.06,1.19-.35.35-.47.25-.71,1.06-.37-.23-1.42L209,479.4l1.18-.73-.72-.82-4.63,1.07-1.19-.95h-.85l-.33-1.2-.95-.47-1.07-1.3h-1.55v1.54l1.32,1.18H202l1.42,2.26,1.44,1.44,3,.23-.35,1.18-.72.24-.21.72-1.55.11-.6-.46,1-.37-1.92-2-.83-.85-.59.34.35,1-1.16.11-.72,1v1.3l-1-.25h-.73l-.12.48,1.21.24ZM214,480.93l2.51.49.6-1.32-1.07-.49.23-1,.7.47h1.2l.24-.47-1.19-.37-.48-.23-.47-.25-.5-1.32-.82.37h-.83l-1,1-.83-.1-1,.35.72,1.07Zm4-8.78v-.73l-.82-.47-.71.62.35.08Zm.85,2.62,1.41.1.12-.58-.72-.35-1.08-.83.14,1Zm4.75,1.3,1,1.2,1.26-.5.14,1.08,1.64-.72,2.64.72,1.06.82v1.66l.47.6,3.7.37,1.32.58,1-.46-1.32-.86.27-1.27.7-.16.25,1.2,1.17.47.23-.82-1.9-2.36-.35-1.08h-1.07l-.83.36-1.2-.25v1.07l.48.37-.83,1-1.55-.6V477l-.82-.48.7-.84-.47-.58-.83.23h-1.18l-1.69.24-1.41-.14-.6-1.05-1,.47v-.58l-.64-.35-1,.46-1.16-.11-.6,1.3,1.55.58Zm-25.92,26.48-.23-1.07-1.18.35v.83l.58-.11Zm2.16.25-.61-.14-.83.74.6.56.58-.46Zm26-20.22,2.15.25-.6-.81-1.88-.72-.93-1.8-1.11,1.2,1.2.6-2-.23-.95,1.05,1.78-.1.74.21v1.42l1.16-.35Zm2.52-.46.46-.95v-.1l-.57-.37-.49.37h-.61l-.11-1.22-.7.48.24,1,1,.24Zm1.43-1.19-.83.14v.7l.35.48.72-.48Zm.82,3.34.93-1L229,483l-.6.95,1.3.23Zm-2.85-.72h-1.07l-1.78.47.6.11,1.07-.11.94.11Zm-4.4.58-.1.72.58-.11.26-.61Zm1.22,1.44-.14-.62-.6.15.26.35Zm2.23-1.2-.83.37-.37.71.48,1.32,1.43-.85-.48-.47.35-.5Zm1.55.37.83-.37h-1.32l-.11.73.6.35Zm1.06,1.54-.11-.36h-.49l-.46.48.6.37Zm2.37-.83-.72.12-1,.35-.46.25,2,1.05Zm-28.4,25.42-.7-.14-.6.35.23.5,1,.47ZM191.06,518l.47-1.55-1.42-.58-.48.48.58.7v1.2Zm-33.75-1-.7.37-.71-.61.58-1.29.83.11.62-.71-.37-1-1.08-.36-.33,1-1,.35v.6l-.63.11-2-1.8-.34,1.22-.59.82L154,517.4l1.55,1.78,1.08.1,1.18-1.65Zm2.27.6-.47-.12-.5-.6-.35,1.55.85.1Zm1.32-5.58-1,.48-.35.7,1.32.23Zm.58,2.5.35-.61v-.48l-.47-.11-.46.94Zm1.55-1.9-.6-.72-.47,1.18.8.35Zm.95-.47-.11-.6h-.72l.12.81Zm-.11,1.53,1.06-.71-.25-.82-.93.7ZM159.46,519l-1.31.33-.59,1.68.23.72,1.09-1.2,1.18-1.2Zm-.35,3.06.93-.47.37-.81-1.18.1Zm3,1.32.68-.47,2.77,1.67-.25,1.88,1.18.25.62,1.3,1-.25.37-1.05,2.75-1.67-.62-1.18,1.55-.25,1.09-2.25-1.65.58-.25-.93,1.43-1-.35-3.93.93-1.18.23-3.57-1.52-.46L171.6,513l.56,1.06-.93,2.73h-1.66l-.49.37.12.82-2.85,1.3-.35-1,4.05-3.82-1.32-1.65-.83-.23-.47.23-1.67-.37v.72l-1.08,1.67.85,1.07-.25.85-1.53-1-1.32-.23v-.72l-1.3,1.07-1.2.23.13.62-.13.7,1.32-.7,1.51.7-.33.58-1-.23-.49.58.49.74-.49,1.66.84.7-.23,1.29Zm7.12,7.36.23-.81-.58-.37-.58.82ZM162,528.93l.7.79.61-1.16-.51-.25Zm10.68-2.73-.57,1.06-2.28.7-.11.72,1.07-.12.48.7,2.36-.23-.58-.6.58-1.28Zm-2.5,15.54,1.67-.13.12-.72h-1.19Zm6.9-2.63.49.36.47-.36-.23-1.17-.73.58ZM192.73,544H191.3l-.14.6.62.82,1.9-1.07v-.56l-.58-.39Zm-3,1.39-.35.3v.58h1.28l.47-.48-.47-.49Zm39.08-32.62-1.67,1.42,1.46.37,1.18-2.16Zm4.64-1.78h.6l.83-.72L234,510Zm-.6,2.73.25-2.13-1.67,1.07-1.88,1.16-.14,1.8,2.62-.48Zm-1.67,6-.81-1-1,.47-.11.73.81.12Zm-3.57,1.3-.58.25-.58.47,1.06.11.47-.21Zm1.2,2.41-.46.09-.6.25.49.6.71-.15ZM226.36,527l.35-2-.48-.73-.84,1.78-.7,1,.84,1.2,2.11-.25Zm2.13,1.3H228l-.23.48V529l.85-.24ZM227,531l.59-.23-.22-.72-.37.35Zm-7.26,1.09-.25-1.21-.69.61.13.7Zm6.07,1.18-.23-.95-1.41.83-.16,1-.47.72-.21,1.2,1.41-.46Zm-6.88,5.33.23.47,1-.35-1.09-.82Zm30.28-38.73.74-.21.47-.48.09-.47h-1.41Zm-31.48,39,.48.72.35-1-.23-.12Zm-21.25-72.11.74-.74-1.85-.72-.72.55-1.85-.18.37,1.09Zm103.62,32.38,1.27.54.68.57,1.25-.43-1.67-1.1Zm13.14,4.47,1,.42.84-1-1.24-.56Zm3.36,1.65-.15-1-1.4.3.57.67ZM299.36,516l1.25.84,1-.42-1-.68Zm-14.27,8.13-1.39.69h-2l1.13,1,1.81.11,1.13-.67Zm-6.16-.3v.84h.72l.25-.7Zm4.07,3.78-1.39-.14-.58.28.7.43Zm-2.54,2,1.43.7,2.08-.58-2.24-.81h-1.39Zm5.05.82v1.27l1.27.44.41-1h-.69Zm.69,2.54.58-.28-.84-.43Zm-12.58,7.12.58.55-.16,1.12.71.13.14-2.64-1-1.13Zm-4.75.29.42,1,.7-.14.27-.69-.53-.84Zm-4.59,1.51-.73.58-.14,2.09-.4,1.11-3.77,1.65-1.12-.26-.71-.83-.28,1.69,1.11,1,.58-.56.81.12,4.89-2.24V544l.44-1.69-.16-2.48Zm19.83-11.58-1,.84h-2.68l-1.67,1.11-1.23.28,1,1.54v1l1.93,2,1.27-.7.41.82-.67.27.26,1.55,1.41.28.56-1.13L283,537l.56-3.52-1-.4.42-1,.84,1,.83-.71-.28-1.4Zm-39.56,15.24.69.12.16-1.11h-.85Zm-1.13,1.51-.56-.7-.84.7.28.56H243Zm-1.53,2h.71l.68-.4-.68-1-.85.73Zm18.16,14.42.86.12.71-.67-1-.44Zm-3.9-.71.56.56,1.13-.29-.83-1Zm-4.33-1.41-1.39.44-.71.69,1.27.84,1.83-.84L255,562l-1.81-1.52Zm-20.27-12h-.85l1,1,.58.3.56-.44L232,548.9Zm-6-7.12h-1l-1.69-.57-.56-1.67-.41,1.94.41,1.12,1.41,1.55-.58,1,.72,2-1.69-.18.42,3.81,1,.26.42-1.94,2-1.4.14-1,1.25-1.25h-2.09l1-1.93Zm-.71,11.59v-.7L226,553l.56-1.15-2.35.86-1-.42-1,1.53-1.8,2.38,1.68-.85-.15,1,.69.42,1.13-.42-.16-.58.16-.69Zm2.64.85-1.25,1.53-1.39.3-1,1.25,1.26.7.69-1,1.95-1.27-.7-.56Z" transform="translate(-8.5 -6.2)"/><path class="cls-1" d="M103.54,307.26V255.5l124.9-36.83,124.9,36.83v52.21l24.59,2.81V250.9a18.55,18.55,0,0,0-13.23-17.69h0l-131-38.65a18.42,18.42,0,0,0-10.43,0l-131,38.65A18.57,18.57,0,0,0,78.94,250.9v59.38Z" transform="translate(-8.5 -6.2)"/><path class="cls-1" d="M353.34,353.93" transform="translate(-8.5 -6.2)"/><path class="cls-1" d="M447,439.09,228.44,461.51,9,439.09V323l218.94-22.18L447,323Zm-40.42-91.63c-7.07-1.61-8.82-2.63-8.82-5v-.15c0-1.82,1.67-3.28,5.1-3.28a25.56,25.56,0,0,1,14.28,5l7.07-10c-5.54-4.44-12.31-6.78-21-6.78-12.24,0-19.75,6.85-19.75,16.33v.15c0,10.49,8.38,13.55,19.24,16,6.92,1.61,8.6,2.78,8.6,4.89v.15c0,2.18-2,3.49-5.83,3.49a26.32,26.32,0,0,1-16.54-6.12l-7.87,9.4c6.27,5.61,14.86,8.46,23.9,8.46,12.39,0,20.63-6.2,20.63-16.62v-.15C425.6,353.8,418.31,350,406.58,347.46ZM359,327.86H345.34l-21.72,51.37h14.87l3.64-9.11h19.68l3.71,9.11h15.16Zm-12.69,31.26L352,344.61l5.68,14.51ZM202.43,404a2.39,2.39,0,0,0,.57-2c-.18-.51-.65-.73-1.41-.68l-2.39.17a5.38,5.38,0,0,0-2.1.63,6.61,6.61,0,0,0-1.95,1.54,7.83,7.83,0,0,0-3.91-1.49,11.89,11.89,0,0,0-5.24.71,24.37,24.37,0,0,0-6.2,3.36,42.32,42.32,0,0,0-6.82,6.33c-.2.24-.34.46-.53.69a30.11,30.11,0,0,1-2.36,2.24,17,17,0,0,1-4.4,2.61,10.5,10.5,0,0,1,1.86-2.93c1.06-1.32,2.12-2.75,3.16-4.27a21.88,21.88,0,0,0,2.42-4.32c.57-1.39.46-2.43-.31-3.16a2.63,2.63,0,0,0-2-.34,11.31,11.31,0,0,0-3.39,1.14,30.92,30.92,0,0,0-4.3,2.66,37.35,37.35,0,0,0-4.75,4.09l2.6-4.06a2.34,2.34,0,0,0,.56-2c-.17-.5-.64-.73-1.4-.68l-2.39.17a5.5,5.5,0,0,0-2.5.92,6.56,6.56,0,0,0-2.15,2.14L149.13,414c-2,2.43-3.87,4.68-5.64,6.69a69.78,69.78,0,0,1-5,5.17,13,13,0,0,1-3.37,2.47c-.83.34-1.22,0-1.15-.95a19.15,19.15,0,0,1,1.64-5q1.5-3.56,5-9.82,1.38-2.58,3-5.32c1.06-1.84,2.14-3.68,3.24-5.55l3.29-5.51c1.08-1.81,2.14-3.54,3.19-5.22q3.54-5.76,7.2-11.31a2.05,2.05,0,0,0,.22-.36h32.83V366.84h-24.7V328.22H154.69v50.34a11.45,11.45,0,0,0-1.66.71,20.24,20.24,0,0,0-3.48,2.17L83.78,436c-1,.84-1.42,1.53-1.14,2a1.52,1.52,0,0,0,1.59.71l2.37-.17a8.62,8.62,0,0,0,3-1A16.28,16.28,0,0,0,93,435.32l14-12.2,19.09-1c-1.84,4.32-2.56,7.73-2.17,10.26s2,3.69,4.79,3.49a11.82,11.82,0,0,0,4.92-1.7,34.38,34.38,0,0,0,5.65-4.23l.51-.51-1.6,2.65a2.53,2.53,0,0,0-.6,2c.15.53.6.77,1.37.71l2.38-.16a5.39,5.39,0,0,0,2.49-.95,8.06,8.06,0,0,0,2.25-2.18c.39-.7.85-1.47,1.4-2.33s1-1.63,1.56-2.63,1.22-2.08,1.91-3.23a34.44,34.44,0,0,1,2.67-3.73q1.63-2,3.4-3.83a41.13,41.13,0,0,1,3.54-3.22,10.74,10.74,0,0,1,3-1.82c-.49.8-1.14,1.79-2,2.95s-1.61,2.33-2.34,3.5-1.38,2.25-1.89,3.23a3.13,3.13,0,0,0-.55,2.1c.21.69,1,1.08,2.44,1.15a13.23,13.23,0,0,0,5-1,21.56,21.56,0,0,0,3-1.38,15.9,15.9,0,0,0-1.57,5.82,5.74,5.74,0,0,0,1.29,4.15,4.27,4.27,0,0,0,3.64,1.31,9.84,9.84,0,0,0,3.89-1.22,26.35,26.35,0,0,0,3.93-2.68,36.86,36.86,0,0,0,3.68-3.39c1.16-1.21,2.19-2.33,3.11-3.39q-2.47,3.56-5,7.36c-1.73,2.54-3.29,4.94-4.7,7.18s-2.61,4.2-3.59,5.86a27.69,27.69,0,0,0-1.83,3.42,4.33,4.33,0,0,0-.16,3,5.8,5.8,0,0,0,1.46,2.42,3.78,3.78,0,0,0,2.1,1.08,1.55,1.55,0,0,0,1.71-1q3.12-5.91,6.28-11.62t6.12-10.86q3-5.16,5.6-9.59t4.62-7.7c1.33-2.19,2.4-3.91,3.22-5.22S202.28,404.18,202.43,404Zm-69.9,6.5q-1.42,2.17-2.57,4.1c-.75,1.29-1.45,2.53-2.09,3.73l-16.46.84,39.52-34.54a49.93,49.93,0,0,0-3.65,4.42c-1.46,1.95-3,4.14-4.7,6.56s-3.38,4.94-5.12,7.53S134.07,408.2,132.53,410.51Zm58.53-.81c-1.12,1.6-2.37,3.29-3.76,5.09s-2.85,3.53-4.38,5.18a30.73,30.73,0,0,1-4.2,3.84c-1.61,1.21-2.82,1.76-3.63,1.66a1.54,1.54,0,0,1-1.36-1.59,8.32,8.32,0,0,1,.74-3.68,18.6,18.6,0,0,1,2.68-4.6,36,36,0,0,1,3.36-4,27.57,27.57,0,0,1,4.24-3.63,14.62,14.62,0,0,1,4.55-2.22,5.88,5.88,0,0,1,4.27.26C193,406.89,192.2,408.12,191.06,409.7Zm101.63-28.05a3.79,3.79,0,0,0-1,2.92,3.88,3.88,0,0,0,1.43,2.83,4,4,0,0,0,3,1,3.87,3.87,0,0,0,2.75-1.38,4,4,0,0,0,1-3,4.08,4.08,0,0,0-4.32-3.73A4,4,0,0,0,292.69,381.65Zm86.63,8a7.4,7.4,0,0,0-3.66-.48,22.3,22.3,0,0,0-8.28,2.07,13.49,13.49,0,0,0-5.38,4.51,12.06,12.06,0,0,0-1.34,2.48c-.09.12-.18.2-.28.34q-1.58,2.18-3.79,4.81c-1.47,1.75-2.94,3.4-4.4,4.93a38.38,38.38,0,0,1-4,3.74c-1.23,1-2.12,1.39-2.69,1.26s-.62-.49-.54-1.23a12.23,12.23,0,0,1,1.52-3.69c.67-1.37,1.5-2.88,2.49-4.51s1.93-3.21,2.84-4.74,1.74-2.82,2.5-3.92,1.21-1.79,1.41-2.08a2.36,2.36,0,0,0,.57-2c-.17-.51-.65-.73-1.42-.68l-2.38.17a5.53,5.53,0,0,0-2.1.64,6.62,6.62,0,0,0-2,1.53,7.85,7.85,0,0,0-3.9-1.49,12,12,0,0,0-5.24.71,24.37,24.37,0,0,0-6.2,3.36,40.42,40.42,0,0,0-4.68,4.13,8.12,8.12,0,0,0-.8.83c-.45.47-.89.87-1.34,1.38a41.49,41.49,0,0,0-3.73,5c-1.18,1.37-2.36,2.72-3.53,3.95a37.33,37.33,0,0,1-4,3.74c-1.23,1-2.12,1.39-2.67,1.26a.74.74,0,0,1-.53-.37,1.78,1.78,0,0,1,0-1.19,13.85,13.85,0,0,1,1-2.42,25.93,25.93,0,0,1,2.49-3.89,50.64,50.64,0,0,0,4.69-7.87,9.83,9.83,0,0,0,1.11-4.61,2.13,2.13,0,0,0-1.62-2,7.29,7.29,0,0,0-3.55.08,16.17,16.17,0,0,0-5.8,2.68,48.32,48.32,0,0,0-5.89,4.91l2.67-4.38a2.34,2.34,0,0,0,.55-2c-.16-.51-.64-.74-1.4-.68l-2.38.17a5.47,5.47,0,0,0-2.5.91,6.69,6.69,0,0,0-2.16,2.14l-3.47,5.72c-.08.11-.15.18-.24.31q-1.57,2.16-3.79,4.8c-1.47,1.74-2.94,3.39-4.4,4.92a39.92,39.92,0,0,1-4,3.76c-1.22,1-2.12,1.37-2.67,1.25s-.64-.49-.59-1.23a11.34,11.34,0,0,1,1.48-3.69c.72-1.38,1.59-2.88,2.56-4.51s1.94-3.21,2.85-4.74,1.74-2.83,2.5-3.93,1.21-1.78,1.42-2.07a2.38,2.38,0,0,0,.55-2c-.17-.51-.64-.74-1.4-.68l-2.39.16a5.74,5.74,0,0,0-2.5.92,6.69,6.69,0,0,0-2.16,2.14c-.25.4-.74,1.15-1.49,2.24s-1.57,2.39-2.45,3.88-2.23,3.05-3.67,4.8-2.89,3.38-4.35,4.89a47.9,47.9,0,0,1-4,3.7c-1.23,1-2.12,1.38-2.67,1.26s-.57-.5-.51-1.24a11.7,11.7,0,0,1,1.39-3.68c.44-.81,1.25-2.21,2.43-4.22s2.55-4.26,4.1-6.79,3.21-5.21,5-8,3.4-5.48,4.93-7.93l3.82-.77A7.16,7.16,0,0,0,288.1,385a7.08,7.08,0,0,0,1.88-2.11,1.94,1.94,0,0,0,.24-1.79c-.23-.48-.88-.64-2-.51l-3.1.47,2.12-3.34c.57-.89.9-1.38,1-1.5a2.3,2.3,0,0,0,.56-2c-.16-.51-.64-.74-1.4-.68l-2.39.16c-.18,0-.38.1-.57.14V351.25l21.79,28h12.39v-51h-14v27l-21-27H270.47v51h8.36l-1.65,2.57-9.45.8c-2.78.22-4.84.39-6.16.47a6.46,6.46,0,0,0-3.57,1.46,9.86,9.86,0,0,0-2.49,2.72,3.32,3.32,0,0,0-.48,2.55q.33,1.14,2.46.9,1.32-.1,5.45-.55l9.72-1.1-5,8.14q-2.58,4.28-4.88,8l-.34.56c-1,1.38-2.12,2.88-3.51,4.53s-2.94,3.4-4.4,4.93a40.79,40.79,0,0,1-4,3.75c-1.23,1-2.12,1.38-2.68,1.26a.76.76,0,0,1-.52-.38,1.72,1.72,0,0,1,0-1.19,14,14,0,0,1,1-2.43,27.2,27.2,0,0,1,2.5-3.88,51,51,0,0,0,4.69-7.87,9.84,9.84,0,0,0,1.11-4.62,2.11,2.11,0,0,0-1.62-2,7.42,7.42,0,0,0-3.55.08,16.17,16.17,0,0,0-5.8,2.68,47.43,47.43,0,0,0-5.89,4.91l2.67-4.39a2.31,2.31,0,0,0,.55-2c-.16-.52-.64-.74-1.4-.68l-2.39.16a5.66,5.66,0,0,0-2.5.92,6.79,6.79,0,0,0-2.16,2.14L231,407.6l-.14.15A64.79,64.79,0,0,1,225,414a66.53,66.53,0,0,1-6.47,5.46,39.79,39.79,0,0,1-6,3.72c-1.87.9-3.36,1.23-4.48,1a2.59,2.59,0,0,1-2.19-1.78,7.25,7.25,0,0,1-.18-3.56,33.09,33.09,0,0,0,6.5-1.63,35.9,35.9,0,0,0,5.76-2.63,27.27,27.27,0,0,0,4.61-3.29,16,16,0,0,0,3.08-3.68,7,7,0,0,0,1.16-3.3,3.52,3.52,0,0,0-.71-2.46,4.68,4.68,0,0,0-2.21-1.5,8.17,8.17,0,0,0-3.33-.37,19.76,19.76,0,0,0-8.85,2.76,28.24,28.24,0,0,0-7.05,5.9,29.5,29.5,0,0,0-4.69,7.34,17.35,17.35,0,0,0-1.68,7.12,7.31,7.31,0,0,0,2,5.27c1.31,1.33,3.38,1.9,6.23,1.7a15.51,15.51,0,0,0,6.61-2.36,56.5,56.5,0,0,0,7.39-5.27c1.24-1,2.39-2.23,3.58-3.35l-4.38,7.24a2.57,2.57,0,0,0-.6,2c.15.53.6.78,1.37.73l2.39-.17a5.24,5.24,0,0,0,2.49-1,8,8,0,0,0,2.24-2.18l1.92-3.19a.91.91,0,0,0,.3-.43,54.78,54.78,0,0,1,4.56-6.29c1.84-2.25,3.7-4.3,5.54-6.17a55.33,55.33,0,0,1,5-4.52c1.49-1.15,2.49-1.6,3-1.36s.45,1.05-.53,2.46l-4.61,6.72a26.74,26.74,0,0,0-3.52,6.85,9.59,9.59,0,0,0-.49,4.77,3.45,3.45,0,0,0,2,2.53,6.06,6.06,0,0,0,4.06,0,11.47,11.47,0,0,0,3.78-1.95,42.63,42.63,0,0,0,4.18-3.47c.94-.88,1.85-1.88,2.77-2.86-.11.44-.25.89-.32,1.32a8,8,0,0,0,.14,3.66,3.34,3.34,0,0,0,1.84,2.18,5.55,5.55,0,0,0,3.8,0,15.27,15.27,0,0,0,5.24-3A58.61,58.61,0,0,0,272,417.7a11,11,0,0,0-.46,3.38,5.13,5.13,0,0,0,.72,2.55,3.23,3.23,0,0,0,1.92,1.38,5.92,5.92,0,0,0,3.2-.19,11.25,11.25,0,0,0,3.83-1.94c1.36-1,2.74-2.18,4.17-3.48.18-.17.35-.37.53-.53l-1.73,2.84a2.57,2.57,0,0,0-.6,2c.15.53.6.78,1.37.73l2.39-.18a5.36,5.36,0,0,0,2.49-.94,8.06,8.06,0,0,0,2.24-2.19L294,418a1,1,0,0,0,.29-.44,55.7,55.7,0,0,1,4.56-6.3c1.84-2.25,3.7-4.3,5.54-6.16a53.59,53.59,0,0,1,5-4.51c1.5-1.15,2.49-1.61,3-1.37s.45,1.05-.53,2.46-2.5,3.66-4.61,6.72a27.07,27.07,0,0,0-3.52,6.85,9.56,9.56,0,0,0-.48,4.77,3.36,3.36,0,0,0,2,2.52,6,6,0,0,0,4.05.05,11.86,11.86,0,0,0,3.79-1.94,47.15,47.15,0,0,0,4.17-3.48c.62-.58,1.22-1.27,1.84-1.9a9.84,9.84,0,0,0-.16,1,5.68,5.68,0,0,0,1.28,4.15,4.21,4.21,0,0,0,3.64,1.3,9,9,0,0,0,3.44-1,21.84,21.84,0,0,0,3.52-2.24,37.13,37.13,0,0,0,3.35-2.9c1.07-1.07,2.07-2.12,3-3.1a11.88,11.88,0,0,0-.62,3.58,5.7,5.7,0,0,0,.61,2.77,3.22,3.22,0,0,0,1.93,1.53,5.7,5.7,0,0,0,3.33-.1,11.48,11.48,0,0,0,3.83-2,51.22,51.22,0,0,0,4.17-3.48c.63-.57,1.23-1.25,1.86-1.88a6.4,6.4,0,0,0-.08,1.38,5.07,5.07,0,0,0,1.73,3.3c1,1,2.64,1.46,4.85,1.47a20.3,20.3,0,0,0,4.62-.54,16.38,16.38,0,0,0,4.31-1.61,15.84,15.84,0,0,0,3.6-2.73,12.4,12.4,0,0,0,2.54-3.7,7.33,7.33,0,0,0,.83-4.24,5.84,5.84,0,0,0-1.41-2.88,10,10,0,0,0-2.58-2c-1-.58-1.91-1.1-2.71-1.58a5.76,5.76,0,0,1-1.81-1.66,2,2,0,0,1,.13-2.19,5.82,5.82,0,0,1,2.4-2.31,5.13,5.13,0,0,1,2.75-.76.68.68,0,0,1,.11.76,6.85,6.85,0,0,1-.55,1.07,12.22,12.22,0,0,1-.82,1.17c-.31.39-.57.71-.76,1-.35.52-.41.91-.17,1.17a2,2,0,0,0,1.19.5,5.93,5.93,0,0,0,1.89-.1,13,13,0,0,0,2-.51,9.2,9.2,0,0,0,3.26-2.37,13,13,0,0,0,2.05-3C380.34,391.08,380.23,390.1,379.32,389.66ZM208.2,411.91a26.94,26.94,0,0,1,2.12-3.24,17.16,17.16,0,0,1,2.5-2.65,11,11,0,0,1,2.69-1.72,5.35,5.35,0,0,1,3.14-.47,1.71,1.71,0,0,1,1.34,1.31,4.3,4.3,0,0,1-.49,2.47,9.71,9.71,0,0,1-2.31,3,18.88,18.88,0,0,1-4.27,2.76,23.13,23.13,0,0,1-6.3,2A25.2,25.2,0,0,1,208.2,411.91ZM339.65,405c-1.29,1.6-2.6,3.13-3.92,4.56A23.27,23.27,0,0,1,332,413c-1.61,1.21-2.82,1.75-3.64,1.66A1.55,1.55,0,0,1,327,413a8.14,8.14,0,0,1,.72-3.68,19,19,0,0,1,2.7-4.61,33.69,33.69,0,0,1,3.35-4,26.66,26.66,0,0,1,4.24-3.64,14.84,14.84,0,0,1,4.55-2.22,5.89,5.89,0,0,1,4.27.27l-.82,1.21c-.7,1.05-1.61,2.34-2.74,3.9S341,403.44,339.65,405Zm27.77,3.18a2.78,2.78,0,0,1,.26,2.56,6.16,6.16,0,0,1-1.47,2.52,8,8,0,0,1-2.2,1.64,7.39,7.39,0,0,1-2.42.79,4.36,4.36,0,0,1-2.16-.18c-.62-.17-.95-.51-1-1a4,4,0,0,1,.33-1.77,8.71,8.71,0,0,1,1.06-1.89c.45-.61.86-1.11,1.22-1.52s.52-.87.16-1.17a3.1,3.1,0,0,0-1.53-.63,9.78,9.78,0,0,0-2.27-.08c-.09,0-.12.05-.2.06.38-.45.82-.94,1.18-1.37,1-1.25,1.84-2.35,2.58-3.41a7.21,7.21,0,0,0,2,1.89c.89.56,1.73,1.15,2.52,1.72A8.66,8.66,0,0,1,367.42,408.22Zm-120.5-80v51h14.21v-51Zm-20.79,0L214.54,360.5,203,328.22H187.14l20.7,51.37H221l20.7-51.37Zm-153.4,0L60.56,348,48.38,328.22H33.45v51H47.29V350.08l13,19.82h.3l13-20v29.3H87.67v-51Zm55.26-.36H114.37L92.65,379.23h14.86l3.65-9.11h19.67l3.72,9.11h15.16Zm-12.68,31.26,5.76-14.51,5.68,14.51Z" transform="translate(-8.5 -6.2)"/><path class="cls-1" d="M208.48,248a12.67,12.67,0,0,1-2,.37,5.84,5.84,0,0,1-1.89,0,2.08,2.08,0,0,1-1.2-.57c-.25-.27-.15-.65.29-1.15a10.91,10.91,0,0,1,.7-.94,7.1,7.1,0,0,0,.62-.87,2.63,2.63,0,0,0,.32-.78.54.54,0,0,0-.24-.61,28.1,28.1,0,0,0-11.25,4.8,47.27,47.27,0,0,0-9.1,8.47,49.42,49.42,0,0,0-6.51,10.16,42.35,42.35,0,0,0-3.46,10,17,17,0,0,0,.08,8,5.23,5.23,0,0,0,4.12,4,13.18,13.18,0,0,0,7.5-.36,29.46,29.46,0,0,0,7.25-3.67,51.6,51.6,0,0,0,6.51-5.3q3-2.91,5.35-5.39a5,5,0,0,1,2-1.47,1.56,1.56,0,0,1,1.28,0,1,1,0,0,1,.29,1.07,3.49,3.49,0,0,1-1,1.69q-2.64,3-5.77,6.33a49.41,49.41,0,0,1-7,6.21,39.15,39.15,0,0,1-8.4,4.73,26,26,0,0,1-10,1.89c-3.57,0-6.38-.79-8.41-2.38a11.74,11.74,0,0,1-4.12-6.25,20.55,20.55,0,0,1-.24-8.84A36.22,36.22,0,0,1,167.7,267a51.66,51.66,0,0,1,6.67-10.15A49.5,49.5,0,0,1,196,241.78a42.49,42.49,0,0,1,14.33-2.37,13,13,0,0,1,2.14.16,3.74,3.74,0,0,1,1.57.57,1.46,1.46,0,0,1,.62,1.16,3.6,3.6,0,0,1-.54,1.8,12.62,12.62,0,0,1-2.27,2.8A9.13,9.13,0,0,1,208.48,248Z" transform="translate(-8.5 -6.2)"/><path class="cls-1" d="M236.08,242.2c-.11.17-.83,1.17-2.15,3s-3,4.11-4.9,6.82-4.08,5.71-6.38,9l-6.6,9.33c-2.08,3-3.92,5.6-5.51,7.89s-2.64,3.9-3.13,4.77a12,12,0,0,0-1.77,3.58c-.14.74,0,1.17.45,1.27s1.48-.18,2.8-1.07a35.27,35.27,0,0,0,4.32-3.45c1.57-1.42,3.15-3,4.74-4.6s2.94-3.16,4-4.53a6,6,0,0,1,1.85-1.68c.52-.25.91-.25,1.15,0a1.41,1.41,0,0,1,.3,1.19,4.54,4.54,0,0,1-.67,1.81c-.38.55-1,1.37-1.93,2.47s-2,2.3-3.21,3.62-2.59,2.68-4,4.1a55.52,55.52,0,0,1-4.45,3.95,49.92,49.92,0,0,1-4.41,3.17,11.11,11.11,0,0,1-4,1.68,5.47,5.47,0,0,1-3.75-.24,3.35,3.35,0,0,1-1.73-2.3,7.73,7.73,0,0,1,.16-3.66,18.05,18.05,0,0,1,1.78-4.32c.32-.55,1-1.54,1.93-3s2.13-3.18,3.5-5.18l4.53-6.58q2.47-3.57,5-7.2l5-7.06c1.62-2.31,3.08-4.36,4.37-6.17l3.21-4.49c.85-1.17,1.36-1.87,1.53-2.09a8,8,0,0,1,2.39-2,5.2,5.2,0,0,1,2.55-.78h2.39c.77,0,1.21.27,1.32.82A2.56,2.56,0,0,1,236.08,242.2Z" transform="translate(-8.5 -6.2)"/><path class="cls-1" d="M234,268.43l-1.53,2c-.8,1.05-1.7,2.29-2.72,3.74s-2.07,3-3.17,4.52-2.06,3-2.88,4.32a11.39,11.39,0,0,0-1.73,3.58c-.11.74,0,1.17.49,1.27s1.46-.17,2.72-1a37,37,0,0,0,4.2-3.38q2.31-2.08,4.66-4.55c1.57-1.65,2.92-3.16,4.08-4.53,1-1.43,1.89-2.67,2.71-3.74s1.38-1.8,1.65-2.18a7.45,7.45,0,0,1,2.39-2,5.5,5.5,0,0,1,2.55-.75h2.31c.77,0,1.22.27,1.36.79a2.31,2.31,0,0,1-.7,1.93c-.22.28-.73.93-1.52,2s-1.72,2.29-2.76,3.74l-3.22,4.52c-1.09,1.57-2,3-2.8,4.32a11.07,11.07,0,0,0-1.72,3.58c-.12.74,0,1.17.41,1.27s1.48-.18,2.8-1.07a36,36,0,0,0,4.32-3.45c1.57-1.42,3.14-3,4.74-4.6s2.94-3.16,4-4.53a6,6,0,0,1,1.85-1.68c.52-.25.91-.25,1.15,0a1.41,1.41,0,0,1,.29,1.19,4.36,4.36,0,0,1-.66,1.81c-.38.55-1,1.37-1.89,2.47s-1.94,2.3-3.17,3.62-2.6,2.68-4.08,4.1a59.62,59.62,0,0,1-4.49,3.95,49.92,49.92,0,0,1-4.41,3.17,11.07,11.07,0,0,1-4,1.68,5.73,5.73,0,0,1-3.25-.08,3.32,3.32,0,0,1-1.85-1.56,5,5,0,0,1-.54-2.59,10.75,10.75,0,0,1,.7-3.33,54.32,54.32,0,0,1-6,4.94,15.24,15.24,0,0,1-5.44,2.62,6.15,6.15,0,0,1-3.83-.16,3.37,3.37,0,0,1-1.9-2.1,6.74,6.74,0,0,1,.08-3.58A17.08,17.08,0,0,1,215.4,284c.65-1.09,1.52-2.45,2.59-4.07s2.16-3.21,3.26-4.77,2.1-3,3-4.23,1.53-2.09,1.86-2.47a7.34,7.34,0,0,1,2.39-2,5.46,5.46,0,0,1,2.55-.75h2.39c.77,0,1.21.27,1.32.79A2.51,2.51,0,0,1,234,268.43Z" transform="translate(-8.5 -6.2)"/><path class="cls-1" d="M285.18,242.2c-.11.11-.57.72-1.36,1.85l-3.13,4.4c-1.3,1.81-2.75,3.85-4.37,6.12l-5,7q-2.55,3.61-5.06,7.19t-4.57,6.53c-1.76,2.53-3.17,4.67-4.25,6.42a22.83,22.83,0,0,0-2.18,4.32,3.65,3.65,0,0,0-.25,2.42,1.44,1.44,0,0,0,1.49.75c1.31,0,3.06-.82,5.23-2.43a54.11,54.11,0,0,0,6.63-6,6.86,6.86,0,0,1-.21-4.93c.52-2,1.94-4.45,4.25-7.25a5.56,5.56,0,0,1,2.1-1.52,8.88,8.88,0,0,1,2.59-.65,9.07,9.07,0,0,1,2.35,0,2.13,2.13,0,0,1,1.36.58c.28.32.3.87.08,1.64a13.42,13.42,0,0,1-1.23,2.76,42.16,42.16,0,0,1-2.35,3.61c-1,1.34-2.05,2.76-3.26,4.24a5.44,5.44,0,0,0,1.78,0,8.41,8.41,0,0,0,2.26-.66,14.55,14.55,0,0,0,2.72-1.61,18.21,18.21,0,0,0,3.13-3,5.31,5.31,0,0,1,1.94-1.56c.57-.21,1-.2,1.23.05s.29.67.13,1.27a6.73,6.73,0,0,1-1.32,2.22,20.1,20.1,0,0,1-8.12,6.33c-2.77,1-5.09,1.21-7,.49q-2.05,2.24-4.32,4.32a47.85,47.85,0,0,1-4.62,3.78,24.17,24.17,0,0,1-4.7,2.68,11.83,11.83,0,0,1-4.57,1,6.52,6.52,0,0,1-4.16-1.15,4.14,4.14,0,0,1-1.4-3.53,16.18,16.18,0,0,1,1.69-6,57.22,57.22,0,0,1,5.11-8.69c1.37-2,2.9-4.21,4.57-6.57s3.35-4.72,5-7.11,3.31-4.71,4.9-6.95l4.28-6c1.27-1.79,2.31-3.25,3.14-4.4s1.31-1.84,1.48-2.06a8,8,0,0,1,2.39-2,5.2,5.2,0,0,1,2.55-.78h2.39c.77,0,1.21.27,1.32.82A2.56,2.56,0,0,1,285.18,242.2Z" transform="translate(-8.5 -6.2)"/></svg>